<mxfile host="app.diagrams.net" agent="Mozilla/5.0 (Macintosh; Intel Mac OS X 10_15_7) AppleWebKit/537.36 (KHTML, like Gecko) Chrome/135.0.0.0 Safari/537.36" version="26.2.13">
  <diagram name="Page-1" id="YVVpLpexJUsHF-H0JtBb">
    <mxGraphModel dx="2380" dy="1232" grid="0" gridSize="10" guides="1" tooltips="1" connect="1" arrows="1" fold="1" page="1" pageScale="1" pageWidth="850" pageHeight="1100" math="0" shadow="0">
      <root>
        <mxCell id="0" />
        <mxCell id="1" parent="0" />
        <mxCell id="eE60RAXkJZyIMcvjwQNI-37" value="" style="rounded=0;whiteSpace=wrap;html=1;fontFamily=Helvetica;fontSize=11;fontColor=default;labelBackgroundColor=default;" vertex="1" parent="1">
          <mxGeometry x="234.5" y="10" width="397.5" height="1030" as="geometry" />
        </mxCell>
        <mxCell id="eE60RAXkJZyIMcvjwQNI-1" value="Register" style="ellipse;whiteSpace=wrap;html=1;fontSize=14;" vertex="1" parent="1">
          <mxGeometry x="365" y="70" width="145" height="60" as="geometry" />
        </mxCell>
        <mxCell id="eE60RAXkJZyIMcvjwQNI-3" value="Login" style="ellipse;whiteSpace=wrap;html=1;fontSize=14;" vertex="1" parent="1">
          <mxGeometry x="365" y="159" width="145" height="60" as="geometry" />
        </mxCell>
        <mxCell id="eE60RAXkJZyIMcvjwQNI-4" value="View Hotels List" style="ellipse;whiteSpace=wrap;html=1;fontSize=14;" vertex="1" parent="1">
          <mxGeometry x="365" y="248" width="145" height="60" as="geometry" />
        </mxCell>
        <mxCell id="eE60RAXkJZyIMcvjwQNI-5" value="View Room List" style="ellipse;whiteSpace=wrap;html=1;fontSize=14;" vertex="1" parent="1">
          <mxGeometry x="365" y="337" width="145" height="60" as="geometry" />
        </mxCell>
        <mxCell id="eE60RAXkJZyIMcvjwQNI-6" value="Check Room Availability" style="ellipse;whiteSpace=wrap;html=1;fontSize=14;" vertex="1" parent="1">
          <mxGeometry x="345" y="430" width="185" height="60" as="geometry" />
        </mxCell>
        <mxCell id="eE60RAXkJZyIMcvjwQNI-7" value="Make Bookings" style="ellipse;whiteSpace=wrap;html=1;fontSize=14;" vertex="1" parent="1">
          <mxGeometry x="357.5" y="520" width="155" height="60" as="geometry" />
        </mxCell>
        <mxCell id="eE60RAXkJZyIMcvjwQNI-11" value="Manage Hotels" style="ellipse;whiteSpace=wrap;html=1;fontSize=14;" vertex="1" parent="1">
          <mxGeometry x="357.5" y="870" width="160" height="60" as="geometry" />
        </mxCell>
        <mxCell id="eE60RAXkJZyIMcvjwQNI-12" value="Manage Rooms" style="ellipse;whiteSpace=wrap;html=1;fontSize=14;" vertex="1" parent="1">
          <mxGeometry x="355" y="960" width="170" height="60" as="geometry" />
        </mxCell>
        <mxCell id="eE60RAXkJZyIMcvjwQNI-13" value="View All Bookings" style="ellipse;whiteSpace=wrap;html=1;fontSize=14;" vertex="1" parent="1">
          <mxGeometry x="355" y="780" width="160" height="60" as="geometry" />
        </mxCell>
        <mxCell id="eE60RAXkJZyIMcvjwQNI-16" style="rounded=0;orthogonalLoop=1;jettySize=auto;html=1;entryX=0;entryY=0.5;entryDx=0;entryDy=0;endArrow=none;startFill=0;" edge="1" parent="1" source="eE60RAXkJZyIMcvjwQNI-15" target="eE60RAXkJZyIMcvjwQNI-1">
          <mxGeometry relative="1" as="geometry" />
        </mxCell>
        <mxCell id="eE60RAXkJZyIMcvjwQNI-17" style="edgeStyle=none;shape=connector;rounded=0;orthogonalLoop=1;jettySize=auto;html=1;entryX=0;entryY=0.5;entryDx=0;entryDy=0;strokeColor=default;align=center;verticalAlign=middle;fontFamily=Helvetica;fontSize=11;fontColor=default;labelBackgroundColor=default;startFill=0;endArrow=none;" edge="1" parent="1" source="eE60RAXkJZyIMcvjwQNI-15" target="eE60RAXkJZyIMcvjwQNI-3">
          <mxGeometry relative="1" as="geometry" />
        </mxCell>
        <mxCell id="eE60RAXkJZyIMcvjwQNI-18" style="edgeStyle=none;shape=connector;rounded=0;orthogonalLoop=1;jettySize=auto;html=1;entryX=0;entryY=0.5;entryDx=0;entryDy=0;strokeColor=default;align=center;verticalAlign=middle;fontFamily=Helvetica;fontSize=11;fontColor=default;labelBackgroundColor=default;startFill=0;endArrow=none;" edge="1" parent="1" source="eE60RAXkJZyIMcvjwQNI-15" target="eE60RAXkJZyIMcvjwQNI-4">
          <mxGeometry relative="1" as="geometry" />
        </mxCell>
        <mxCell id="eE60RAXkJZyIMcvjwQNI-19" style="edgeStyle=none;shape=connector;rounded=0;orthogonalLoop=1;jettySize=auto;html=1;entryX=0;entryY=0.5;entryDx=0;entryDy=0;strokeColor=default;align=center;verticalAlign=middle;fontFamily=Helvetica;fontSize=11;fontColor=default;labelBackgroundColor=default;startFill=0;endArrow=none;" edge="1" parent="1" source="eE60RAXkJZyIMcvjwQNI-15" target="eE60RAXkJZyIMcvjwQNI-5">
          <mxGeometry relative="1" as="geometry" />
        </mxCell>
        <mxCell id="eE60RAXkJZyIMcvjwQNI-20" style="edgeStyle=none;shape=connector;rounded=0;orthogonalLoop=1;jettySize=auto;html=1;entryX=0;entryY=0.5;entryDx=0;entryDy=0;strokeColor=default;align=center;verticalAlign=middle;fontFamily=Helvetica;fontSize=11;fontColor=default;labelBackgroundColor=default;startFill=0;endArrow=none;" edge="1" parent="1" source="eE60RAXkJZyIMcvjwQNI-15" target="eE60RAXkJZyIMcvjwQNI-6">
          <mxGeometry relative="1" as="geometry" />
        </mxCell>
        <mxCell id="eE60RAXkJZyIMcvjwQNI-21" style="edgeStyle=none;shape=connector;rounded=0;orthogonalLoop=1;jettySize=auto;html=1;entryX=0;entryY=0.5;entryDx=0;entryDy=0;strokeColor=default;align=center;verticalAlign=middle;fontFamily=Helvetica;fontSize=11;fontColor=default;labelBackgroundColor=default;startFill=0;endArrow=none;" edge="1" parent="1" source="eE60RAXkJZyIMcvjwQNI-15" target="eE60RAXkJZyIMcvjwQNI-7">
          <mxGeometry relative="1" as="geometry" />
        </mxCell>
        <mxCell id="eE60RAXkJZyIMcvjwQNI-41" style="edgeStyle=none;shape=connector;rounded=0;orthogonalLoop=1;jettySize=auto;html=1;entryX=0;entryY=0.5;entryDx=0;entryDy=0;strokeColor=default;align=center;verticalAlign=middle;fontFamily=Helvetica;fontSize=11;fontColor=default;labelBackgroundColor=default;startFill=0;endArrow=none;" edge="1" parent="1" source="eE60RAXkJZyIMcvjwQNI-15" target="eE60RAXkJZyIMcvjwQNI-39">
          <mxGeometry relative="1" as="geometry" />
        </mxCell>
        <mxCell id="eE60RAXkJZyIMcvjwQNI-42" style="edgeStyle=none;shape=connector;rounded=0;orthogonalLoop=1;jettySize=auto;html=1;entryX=0;entryY=0.5;entryDx=0;entryDy=0;strokeColor=default;align=center;verticalAlign=middle;fontFamily=Helvetica;fontSize=11;fontColor=default;labelBackgroundColor=default;startFill=0;endArrow=none;" edge="1" parent="1" source="eE60RAXkJZyIMcvjwQNI-15" target="eE60RAXkJZyIMcvjwQNI-40">
          <mxGeometry relative="1" as="geometry" />
        </mxCell>
        <mxCell id="eE60RAXkJZyIMcvjwQNI-15" value="User" style="shape=umlActor;verticalLabelPosition=bottom;verticalAlign=top;html=1;outlineConnect=0;fontSize=14;" vertex="1" parent="1">
          <mxGeometry x="90" y="397" width="30" height="60" as="geometry" />
        </mxCell>
        <mxCell id="eE60RAXkJZyIMcvjwQNI-26" style="edgeStyle=none;shape=connector;rounded=0;orthogonalLoop=1;jettySize=auto;html=1;entryX=1;entryY=0.5;entryDx=0;entryDy=0;strokeColor=default;align=center;verticalAlign=middle;fontFamily=Helvetica;fontSize=11;fontColor=default;labelBackgroundColor=default;startFill=0;endArrow=none;" edge="1" parent="1" source="eE60RAXkJZyIMcvjwQNI-25" target="eE60RAXkJZyIMcvjwQNI-1">
          <mxGeometry relative="1" as="geometry" />
        </mxCell>
        <mxCell id="eE60RAXkJZyIMcvjwQNI-27" style="edgeStyle=none;shape=connector;rounded=0;orthogonalLoop=1;jettySize=auto;html=1;entryX=1;entryY=0.5;entryDx=0;entryDy=0;strokeColor=default;align=center;verticalAlign=middle;fontFamily=Helvetica;fontSize=11;fontColor=default;labelBackgroundColor=default;startFill=0;endArrow=none;" edge="1" parent="1" source="eE60RAXkJZyIMcvjwQNI-25" target="eE60RAXkJZyIMcvjwQNI-3">
          <mxGeometry relative="1" as="geometry" />
        </mxCell>
        <mxCell id="eE60RAXkJZyIMcvjwQNI-28" style="edgeStyle=none;shape=connector;rounded=0;orthogonalLoop=1;jettySize=auto;html=1;entryX=1;entryY=0.5;entryDx=0;entryDy=0;strokeColor=default;align=center;verticalAlign=middle;fontFamily=Helvetica;fontSize=11;fontColor=default;labelBackgroundColor=default;startFill=0;endArrow=none;" edge="1" parent="1" source="eE60RAXkJZyIMcvjwQNI-25" target="eE60RAXkJZyIMcvjwQNI-4">
          <mxGeometry relative="1" as="geometry" />
        </mxCell>
        <mxCell id="eE60RAXkJZyIMcvjwQNI-29" style="edgeStyle=none;shape=connector;rounded=0;orthogonalLoop=1;jettySize=auto;html=1;entryX=1;entryY=0.5;entryDx=0;entryDy=0;strokeColor=default;align=center;verticalAlign=middle;fontFamily=Helvetica;fontSize=11;fontColor=default;labelBackgroundColor=default;startFill=0;endArrow=none;" edge="1" parent="1" source="eE60RAXkJZyIMcvjwQNI-25" target="eE60RAXkJZyIMcvjwQNI-5">
          <mxGeometry relative="1" as="geometry" />
        </mxCell>
        <mxCell id="eE60RAXkJZyIMcvjwQNI-30" style="edgeStyle=none;shape=connector;rounded=0;orthogonalLoop=1;jettySize=auto;html=1;entryX=1;entryY=0.5;entryDx=0;entryDy=0;strokeColor=default;align=center;verticalAlign=middle;fontFamily=Helvetica;fontSize=11;fontColor=default;labelBackgroundColor=default;startFill=0;endArrow=none;" edge="1" parent="1" source="eE60RAXkJZyIMcvjwQNI-25" target="eE60RAXkJZyIMcvjwQNI-6">
          <mxGeometry relative="1" as="geometry" />
        </mxCell>
        <mxCell id="eE60RAXkJZyIMcvjwQNI-31" style="edgeStyle=none;shape=connector;rounded=0;orthogonalLoop=1;jettySize=auto;html=1;entryX=1;entryY=0.5;entryDx=0;entryDy=0;strokeColor=default;align=center;verticalAlign=middle;fontFamily=Helvetica;fontSize=11;fontColor=default;labelBackgroundColor=default;startFill=0;endArrow=none;" edge="1" parent="1" source="eE60RAXkJZyIMcvjwQNI-25" target="eE60RAXkJZyIMcvjwQNI-7">
          <mxGeometry relative="1" as="geometry" />
        </mxCell>
        <mxCell id="eE60RAXkJZyIMcvjwQNI-32" style="edgeStyle=none;shape=connector;rounded=0;orthogonalLoop=1;jettySize=auto;html=1;entryX=1;entryY=0.5;entryDx=0;entryDy=0;strokeColor=default;align=center;verticalAlign=middle;fontFamily=Helvetica;fontSize=11;fontColor=default;labelBackgroundColor=default;startFill=0;endArrow=none;" edge="1" parent="1" source="eE60RAXkJZyIMcvjwQNI-25" target="eE60RAXkJZyIMcvjwQNI-13">
          <mxGeometry relative="1" as="geometry" />
        </mxCell>
        <mxCell id="eE60RAXkJZyIMcvjwQNI-33" style="edgeStyle=none;shape=connector;rounded=0;orthogonalLoop=1;jettySize=auto;html=1;entryX=1;entryY=0.5;entryDx=0;entryDy=0;strokeColor=default;align=center;verticalAlign=middle;fontFamily=Helvetica;fontSize=11;fontColor=default;labelBackgroundColor=default;startFill=0;endArrow=none;" edge="1" parent="1" source="eE60RAXkJZyIMcvjwQNI-25" target="eE60RAXkJZyIMcvjwQNI-11">
          <mxGeometry relative="1" as="geometry" />
        </mxCell>
        <mxCell id="eE60RAXkJZyIMcvjwQNI-34" style="edgeStyle=none;shape=connector;rounded=0;orthogonalLoop=1;jettySize=auto;html=1;entryX=1;entryY=0.5;entryDx=0;entryDy=0;strokeColor=default;align=center;verticalAlign=middle;fontFamily=Helvetica;fontSize=11;fontColor=default;labelBackgroundColor=default;startFill=0;endArrow=none;" edge="1" parent="1" source="eE60RAXkJZyIMcvjwQNI-25" target="eE60RAXkJZyIMcvjwQNI-12">
          <mxGeometry relative="1" as="geometry" />
        </mxCell>
        <mxCell id="eE60RAXkJZyIMcvjwQNI-43" style="edgeStyle=none;shape=connector;rounded=0;orthogonalLoop=1;jettySize=auto;html=1;entryX=1;entryY=0.5;entryDx=0;entryDy=0;strokeColor=default;align=center;verticalAlign=middle;fontFamily=Helvetica;fontSize=11;fontColor=default;labelBackgroundColor=default;startFill=0;endArrow=none;" edge="1" parent="1" source="eE60RAXkJZyIMcvjwQNI-25" target="eE60RAXkJZyIMcvjwQNI-39">
          <mxGeometry relative="1" as="geometry" />
        </mxCell>
        <mxCell id="eE60RAXkJZyIMcvjwQNI-44" style="edgeStyle=none;shape=connector;rounded=0;orthogonalLoop=1;jettySize=auto;html=1;entryX=1;entryY=0.5;entryDx=0;entryDy=0;strokeColor=default;align=center;verticalAlign=middle;fontFamily=Helvetica;fontSize=11;fontColor=default;labelBackgroundColor=default;startFill=0;endArrow=none;" edge="1" parent="1" source="eE60RAXkJZyIMcvjwQNI-25" target="eE60RAXkJZyIMcvjwQNI-40">
          <mxGeometry relative="1" as="geometry" />
        </mxCell>
        <mxCell id="eE60RAXkJZyIMcvjwQNI-25" value="Admin" style="shape=umlActor;verticalLabelPosition=bottom;verticalAlign=top;html=1;outlineConnect=0;fontFamily=Helvetica;fontSize=14;fontColor=default;labelBackgroundColor=default;" vertex="1" parent="1">
          <mxGeometry x="760" y="520" width="30" height="60" as="geometry" />
        </mxCell>
        <mxCell id="eE60RAXkJZyIMcvjwQNI-38" value="Hotel Booking System" style="text;whiteSpace=wrap;fontFamily=Helvetica;fontSize=16;fontColor=default;labelBackgroundColor=default;align=center;fontStyle=1" vertex="1" parent="1">
          <mxGeometry x="315" y="10" width="245" height="40" as="geometry" />
        </mxCell>
        <mxCell id="eE60RAXkJZyIMcvjwQNI-39" value="View Booking" style="ellipse;whiteSpace=wrap;html=1;fontSize=14;" vertex="1" parent="1">
          <mxGeometry x="355" y="610" width="160" height="60" as="geometry" />
        </mxCell>
        <mxCell id="eE60RAXkJZyIMcvjwQNI-40" value="Cancel Booking" style="ellipse;whiteSpace=wrap;html=1;fontSize=14;" vertex="1" parent="1">
          <mxGeometry x="355" y="692" width="160" height="60" as="geometry" />
        </mxCell>
        <mxCell id="eE60RAXkJZyIMcvjwQNI-52" value="User" style="swimlane;fontStyle=0;childLayout=stackLayout;horizontal=1;startSize=30;horizontalStack=0;resizeParent=1;resizeParentMax=0;resizeLast=0;collapsible=1;marginBottom=0;whiteSpace=wrap;html=1;fontFamily=Helvetica;fontSize=14;fontColor=default;labelBackgroundColor=default;" vertex="1" parent="1">
          <mxGeometry x="1004" y="355" width="170" height="210" as="geometry" />
        </mxCell>
        <mxCell id="eE60RAXkJZyIMcvjwQNI-53" value="- id: ObjectId" style="text;strokeColor=none;fillColor=none;align=left;verticalAlign=middle;spacingLeft=4;spacingRight=4;overflow=hidden;points=[[0,0.5],[1,0.5]];portConstraint=eastwest;rotatable=0;whiteSpace=wrap;html=1;fontFamily=Helvetica;fontSize=14;fontColor=default;labelBackgroundColor=default;" vertex="1" parent="eE60RAXkJZyIMcvjwQNI-52">
          <mxGeometry y="30" width="170" height="30" as="geometry" />
        </mxCell>
        <mxCell id="eE60RAXkJZyIMcvjwQNI-54" value="- name: string" style="text;strokeColor=none;fillColor=none;align=left;verticalAlign=middle;spacingLeft=4;spacingRight=4;overflow=hidden;points=[[0,0.5],[1,0.5]];portConstraint=eastwest;rotatable=0;whiteSpace=wrap;html=1;fontFamily=Helvetica;fontSize=14;fontColor=default;labelBackgroundColor=default;" vertex="1" parent="eE60RAXkJZyIMcvjwQNI-52">
          <mxGeometry y="60" width="170" height="30" as="geometry" />
        </mxCell>
        <mxCell id="eE60RAXkJZyIMcvjwQNI-55" value="- email: string" style="text;strokeColor=none;fillColor=none;align=left;verticalAlign=middle;spacingLeft=4;spacingRight=4;overflow=hidden;points=[[0,0.5],[1,0.5]];portConstraint=eastwest;rotatable=0;whiteSpace=wrap;html=1;fontFamily=Helvetica;fontSize=14;fontColor=default;labelBackgroundColor=default;" vertex="1" parent="eE60RAXkJZyIMcvjwQNI-52">
          <mxGeometry y="90" width="170" height="30" as="geometry" />
        </mxCell>
        <mxCell id="eE60RAXkJZyIMcvjwQNI-56" value="- password: string" style="text;strokeColor=none;fillColor=none;align=left;verticalAlign=middle;spacingLeft=4;spacingRight=4;overflow=hidden;points=[[0,0.5],[1,0.5]];portConstraint=eastwest;rotatable=0;whiteSpace=wrap;html=1;fontFamily=Helvetica;fontSize=14;fontColor=default;labelBackgroundColor=default;" vertex="1" parent="eE60RAXkJZyIMcvjwQNI-52">
          <mxGeometry y="120" width="170" height="30" as="geometry" />
        </mxCell>
        <mxCell id="eE60RAXkJZyIMcvjwQNI-57" value="- role: &quot;user&quot; | &quot;admin&quot;" style="text;strokeColor=none;fillColor=none;align=left;verticalAlign=middle;spacingLeft=4;spacingRight=4;overflow=hidden;points=[[0,0.5],[1,0.5]];portConstraint=eastwest;rotatable=0;whiteSpace=wrap;html=1;fontFamily=Helvetica;fontSize=14;fontColor=default;labelBackgroundColor=default;" vertex="1" parent="eE60RAXkJZyIMcvjwQNI-52">
          <mxGeometry y="150" width="170" height="30" as="geometry" />
        </mxCell>
        <mxCell id="eE60RAXkJZyIMcvjwQNI-58" value="- telephone: string" style="text;strokeColor=none;fillColor=none;align=left;verticalAlign=middle;spacingLeft=4;spacingRight=4;overflow=hidden;points=[[0,0.5],[1,0.5]];portConstraint=eastwest;rotatable=0;whiteSpace=wrap;html=1;fontFamily=Helvetica;fontSize=14;fontColor=default;labelBackgroundColor=default;" vertex="1" parent="eE60RAXkJZyIMcvjwQNI-52">
          <mxGeometry y="180" width="170" height="30" as="geometry" />
        </mxCell>
        <mxCell id="eE60RAXkJZyIMcvjwQNI-59" value="Hotel" style="swimlane;fontStyle=0;childLayout=stackLayout;horizontal=1;startSize=30;horizontalStack=0;resizeParent=1;resizeParentMax=0;resizeLast=0;collapsible=1;marginBottom=0;whiteSpace=wrap;html=1;fontFamily=Helvetica;fontSize=14;fontColor=default;labelBackgroundColor=default;" vertex="1" parent="1">
          <mxGeometry x="1357" y="76" width="170" height="180" as="geometry" />
        </mxCell>
        <mxCell id="eE60RAXkJZyIMcvjwQNI-60" value="- id: ObjectId" style="text;strokeColor=none;fillColor=none;align=left;verticalAlign=middle;spacingLeft=4;spacingRight=4;overflow=hidden;points=[[0,0.5],[1,0.5]];portConstraint=eastwest;rotatable=0;whiteSpace=wrap;html=1;fontFamily=Helvetica;fontSize=14;fontColor=default;labelBackgroundColor=default;" vertex="1" parent="eE60RAXkJZyIMcvjwQNI-59">
          <mxGeometry y="30" width="170" height="30" as="geometry" />
        </mxCell>
        <mxCell id="eE60RAXkJZyIMcvjwQNI-61" value="- name: string" style="text;strokeColor=none;fillColor=none;align=left;verticalAlign=middle;spacingLeft=4;spacingRight=4;overflow=hidden;points=[[0,0.5],[1,0.5]];portConstraint=eastwest;rotatable=0;whiteSpace=wrap;html=1;fontFamily=Helvetica;fontSize=14;fontColor=default;labelBackgroundColor=default;" vertex="1" parent="eE60RAXkJZyIMcvjwQNI-59">
          <mxGeometry y="60" width="170" height="30" as="geometry" />
        </mxCell>
        <mxCell id="eE60RAXkJZyIMcvjwQNI-62" value="- email: string" style="text;strokeColor=none;fillColor=none;align=left;verticalAlign=middle;spacingLeft=4;spacingRight=4;overflow=hidden;points=[[0,0.5],[1,0.5]];portConstraint=eastwest;rotatable=0;whiteSpace=wrap;html=1;fontFamily=Helvetica;fontSize=14;fontColor=default;labelBackgroundColor=default;" vertex="1" parent="eE60RAXkJZyIMcvjwQNI-59">
          <mxGeometry y="90" width="170" height="30" as="geometry" />
        </mxCell>
        <mxCell id="eE60RAXkJZyIMcvjwQNI-65" value="- telephone: string" style="text;strokeColor=none;fillColor=none;align=left;verticalAlign=middle;spacingLeft=4;spacingRight=4;overflow=hidden;points=[[0,0.5],[1,0.5]];portConstraint=eastwest;rotatable=0;whiteSpace=wrap;html=1;fontFamily=Helvetica;fontSize=14;fontColor=default;labelBackgroundColor=default;" vertex="1" parent="eE60RAXkJZyIMcvjwQNI-59">
          <mxGeometry y="120" width="170" height="30" as="geometry" />
        </mxCell>
        <mxCell id="eE60RAXkJZyIMcvjwQNI-67" value="- address: string" style="text;strokeColor=none;fillColor=none;align=left;verticalAlign=middle;spacingLeft=4;spacingRight=4;overflow=hidden;points=[[0,0.5],[1,0.5]];portConstraint=eastwest;rotatable=0;whiteSpace=wrap;html=1;fontFamily=Helvetica;fontSize=14;fontColor=default;labelBackgroundColor=default;" vertex="1" parent="eE60RAXkJZyIMcvjwQNI-59">
          <mxGeometry y="150" width="170" height="30" as="geometry" />
        </mxCell>
        <mxCell id="eE60RAXkJZyIMcvjwQNI-80" style="edgeStyle=none;shape=connector;rounded=0;orthogonalLoop=1;jettySize=auto;html=1;strokeColor=default;align=center;verticalAlign=middle;fontFamily=Helvetica;fontSize=11;fontColor=default;labelBackgroundColor=default;startFill=0;endArrow=diamondThin;endFill=0;endSize=18;" edge="1" parent="1" source="eE60RAXkJZyIMcvjwQNI-69" target="eE60RAXkJZyIMcvjwQNI-67">
          <mxGeometry relative="1" as="geometry" />
        </mxCell>
        <mxCell id="eE60RAXkJZyIMcvjwQNI-69" value="Room" style="swimlane;fontStyle=0;childLayout=stackLayout;horizontal=1;startSize=30;horizontalStack=0;resizeParent=1;resizeParentMax=0;resizeLast=0;collapsible=1;marginBottom=0;whiteSpace=wrap;html=1;fontFamily=Helvetica;fontSize=14;fontColor=default;labelBackgroundColor=default;" vertex="1" parent="1">
          <mxGeometry x="1357" y="359" width="170" height="150" as="geometry" />
        </mxCell>
        <mxCell id="eE60RAXkJZyIMcvjwQNI-70" value="- id: ObjectId" style="text;strokeColor=none;fillColor=none;align=left;verticalAlign=middle;spacingLeft=4;spacingRight=4;overflow=hidden;points=[[0,0.5],[1,0.5]];portConstraint=eastwest;rotatable=0;whiteSpace=wrap;html=1;fontFamily=Helvetica;fontSize=14;fontColor=default;labelBackgroundColor=default;" vertex="1" parent="eE60RAXkJZyIMcvjwQNI-69">
          <mxGeometry y="30" width="170" height="30" as="geometry" />
        </mxCell>
        <mxCell id="eE60RAXkJZyIMcvjwQNI-71" value="- roomNumber: string" style="text;strokeColor=none;fillColor=none;align=left;verticalAlign=middle;spacingLeft=4;spacingRight=4;overflow=hidden;points=[[0,0.5],[1,0.5]];portConstraint=eastwest;rotatable=0;whiteSpace=wrap;html=1;fontFamily=Helvetica;fontSize=14;fontColor=default;labelBackgroundColor=default;" vertex="1" parent="eE60RAXkJZyIMcvjwQNI-69">
          <mxGeometry y="60" width="170" height="30" as="geometry" />
        </mxCell>
        <mxCell id="eE60RAXkJZyIMcvjwQNI-72" value="- type: string" style="text;strokeColor=none;fillColor=none;align=left;verticalAlign=middle;spacingLeft=4;spacingRight=4;overflow=hidden;points=[[0,0.5],[1,0.5]];portConstraint=eastwest;rotatable=0;whiteSpace=wrap;html=1;fontFamily=Helvetica;fontSize=14;fontColor=default;labelBackgroundColor=default;" vertex="1" parent="eE60RAXkJZyIMcvjwQNI-69">
          <mxGeometry y="90" width="170" height="30" as="geometry" />
        </mxCell>
        <mxCell id="eE60RAXkJZyIMcvjwQNI-73" value="- price: number" style="text;strokeColor=none;fillColor=none;align=left;verticalAlign=middle;spacingLeft=4;spacingRight=4;overflow=hidden;points=[[0,0.5],[1,0.5]];portConstraint=eastwest;rotatable=0;whiteSpace=wrap;html=1;fontFamily=Helvetica;fontSize=14;fontColor=default;labelBackgroundColor=default;" vertex="1" parent="eE60RAXkJZyIMcvjwQNI-69">
          <mxGeometry y="120" width="170" height="30" as="geometry" />
        </mxCell>
        <mxCell id="eE60RAXkJZyIMcvjwQNI-86" style="edgeStyle=none;shape=connector;rounded=0;orthogonalLoop=1;jettySize=auto;html=1;entryX=0;entryY=0.5;entryDx=0;entryDy=0;strokeColor=default;align=center;verticalAlign=middle;fontFamily=Helvetica;fontSize=11;fontColor=default;labelBackgroundColor=default;startFill=0;endArrow=none;" edge="1" parent="1" source="eE60RAXkJZyIMcvjwQNI-75" target="eE60RAXkJZyIMcvjwQNI-61">
          <mxGeometry relative="1" as="geometry" />
        </mxCell>
        <mxCell id="eE60RAXkJZyIMcvjwQNI-75" value="Booking" style="swimlane;fontStyle=0;childLayout=stackLayout;horizontal=1;startSize=30;horizontalStack=0;resizeParent=1;resizeParentMax=0;resizeLast=0;collapsible=1;marginBottom=0;whiteSpace=wrap;html=1;fontFamily=Helvetica;fontSize=14;fontColor=default;labelBackgroundColor=default;" vertex="1" parent="1">
          <mxGeometry x="1006" y="76" width="170" height="150" as="geometry" />
        </mxCell>
        <mxCell id="eE60RAXkJZyIMcvjwQNI-76" value="- id: ObjectId" style="text;strokeColor=none;fillColor=none;align=left;verticalAlign=middle;spacingLeft=4;spacingRight=4;overflow=hidden;points=[[0,0.5],[1,0.5]];portConstraint=eastwest;rotatable=0;whiteSpace=wrap;html=1;fontFamily=Helvetica;fontSize=14;fontColor=default;labelBackgroundColor=default;" vertex="1" parent="eE60RAXkJZyIMcvjwQNI-75">
          <mxGeometry y="30" width="170" height="30" as="geometry" />
        </mxCell>
        <mxCell id="eE60RAXkJZyIMcvjwQNI-77" value="- checkInDate: Date" style="text;strokeColor=none;fillColor=none;align=left;verticalAlign=middle;spacingLeft=4;spacingRight=4;overflow=hidden;points=[[0,0.5],[1,0.5]];portConstraint=eastwest;rotatable=0;whiteSpace=wrap;html=1;fontFamily=Helvetica;fontSize=14;fontColor=default;labelBackgroundColor=default;" vertex="1" parent="eE60RAXkJZyIMcvjwQNI-75">
          <mxGeometry y="60" width="170" height="30" as="geometry" />
        </mxCell>
        <mxCell id="eE60RAXkJZyIMcvjwQNI-78" value="- checkOutDate: Date" style="text;strokeColor=none;fillColor=none;align=left;verticalAlign=middle;spacingLeft=4;spacingRight=4;overflow=hidden;points=[[0,0.5],[1,0.5]];portConstraint=eastwest;rotatable=0;whiteSpace=wrap;html=1;fontFamily=Helvetica;fontSize=14;fontColor=default;labelBackgroundColor=default;" vertex="1" parent="eE60RAXkJZyIMcvjwQNI-75">
          <mxGeometry y="90" width="170" height="30" as="geometry" />
        </mxCell>
        <mxCell id="eE60RAXkJZyIMcvjwQNI-79" value="- createdAt: Date" style="text;strokeColor=none;fillColor=none;align=left;verticalAlign=middle;spacingLeft=4;spacingRight=4;overflow=hidden;points=[[0,0.5],[1,0.5]];portConstraint=eastwest;rotatable=0;whiteSpace=wrap;html=1;fontFamily=Helvetica;fontSize=14;fontColor=default;labelBackgroundColor=default;" vertex="1" parent="eE60RAXkJZyIMcvjwQNI-75">
          <mxGeometry y="120" width="170" height="30" as="geometry" />
        </mxCell>
        <mxCell id="eE60RAXkJZyIMcvjwQNI-83" value="1" style="text;html=1;align=center;verticalAlign=middle;whiteSpace=wrap;rounded=0;fontFamily=Helvetica;fontSize=14;fontColor=default;labelBackgroundColor=default;" vertex="1" parent="1">
          <mxGeometry x="1447" y="256" width="30" height="30" as="geometry" />
        </mxCell>
        <mxCell id="eE60RAXkJZyIMcvjwQNI-84" value="M" style="text;html=1;align=center;verticalAlign=middle;whiteSpace=wrap;rounded=0;fontFamily=Helvetica;fontSize=14;fontColor=default;labelBackgroundColor=default;" vertex="1" parent="1">
          <mxGeometry x="1447" y="329" width="30" height="30" as="geometry" />
        </mxCell>
        <mxCell id="eE60RAXkJZyIMcvjwQNI-87" style="edgeStyle=none;shape=connector;rounded=0;orthogonalLoop=1;jettySize=auto;html=1;entryX=0.491;entryY=0.984;entryDx=0;entryDy=0;entryPerimeter=0;strokeColor=default;align=center;verticalAlign=middle;fontFamily=Helvetica;fontSize=11;fontColor=default;labelBackgroundColor=default;startFill=0;endArrow=none;" edge="1" parent="1" source="eE60RAXkJZyIMcvjwQNI-52" target="eE60RAXkJZyIMcvjwQNI-79">
          <mxGeometry relative="1" as="geometry" />
        </mxCell>
        <mxCell id="eE60RAXkJZyIMcvjwQNI-88" value="M" style="text;html=1;align=center;verticalAlign=middle;whiteSpace=wrap;rounded=0;fontFamily=Helvetica;fontSize=14;fontColor=default;labelBackgroundColor=default;" vertex="1" parent="1">
          <mxGeometry x="1090" y="226" width="30" height="30" as="geometry" />
        </mxCell>
        <mxCell id="eE60RAXkJZyIMcvjwQNI-89" value="1" style="text;html=1;align=center;verticalAlign=middle;whiteSpace=wrap;rounded=0;fontFamily=Helvetica;fontSize=14;fontColor=default;labelBackgroundColor=default;" vertex="1" parent="1">
          <mxGeometry x="1090" y="325" width="30" height="30" as="geometry" />
        </mxCell>
        <mxCell id="eE60RAXkJZyIMcvjwQNI-90" value="M" style="text;html=1;align=center;verticalAlign=middle;whiteSpace=wrap;rounded=0;fontFamily=Helvetica;fontSize=14;fontColor=default;labelBackgroundColor=default;" vertex="1" parent="1">
          <mxGeometry x="1176" y="121" width="30" height="30" as="geometry" />
        </mxCell>
        <mxCell id="eE60RAXkJZyIMcvjwQNI-91" value="M" style="text;html=1;align=center;verticalAlign=middle;whiteSpace=wrap;rounded=0;fontFamily=Helvetica;fontSize=14;fontColor=default;labelBackgroundColor=default;" vertex="1" parent="1">
          <mxGeometry x="1327" y="121" width="30" height="30" as="geometry" />
        </mxCell>
      </root>
    </mxGraphModel>
  </diagram>
</mxfile>
